<?xml version="1.0" encoding="UTF-8" standalone="no"?>
<!DOCTYPE svg PUBLIC "-//W3C//DTD SVG 1.1//EN" "http://www.w3.org/Graphics/SVG/1.1/DTD/svg11.dtd">
<svg width="100%" height="100%" viewBox="0 0 819 76" version="1.1" xmlns="http://www.w3.org/2000/svg" xmlns:xlink="http://www.w3.org/1999/xlink" xml:space="preserve" xmlns:serif="http://www.serif.com/" style="fill-rule:evenodd;clip-rule:evenodd;stroke-linejoin:round;stroke-miterlimit:2;">
    <path d="M0,0L36.84,0L36.84,75.01L0,75.01L0,0ZM118.54,0L155.38,0L155.38,75.01L118.54,75.01L118.54,0ZM72.58,15.61L77.84,4.9L83.06,15.22C83.71,16.31 84.24,16.22 85.28,15.7L89.77,13.48L86.85,27.89C86.24,30.72 87.85,31.55 89.6,29.63L96,22.79L97.7,26.66C98.27,27.83 99.13,27.66 100.27,27.45L106.88,26.06L104.66,34.41L104.66,34.59C104.4,35.68 103.88,36.59 105.1,37.12L107.45,38.29L93.77,49.82C92.38,51.25 92.86,51.69 93.38,53.3L94.64,57.17L81.93,54.87C80.36,54.48 79.27,54.48 79.23,55.74L79.75,70.32L75.93,70.32L76.45,55.78C76.45,54.35 75.36,54.39 72.79,54.92L61,57.18L62.52,53.31C63.04,51.83 63.18,50.83 62,49.83L48.11,38.46L50.68,36.89C51.42,36.32 51.46,35.72 51.07,34.45L48.46,26L55.16,27.43C57.03,27.87 57.55,27.43 58.03,26.43L59.9,22.6L66.52,30C67.69,31.39 69.35,30.48 68.83,28.48L65.65,12.86L70.57,15.69C71.35,16.17 72.18,16.3 72.66,15.39" style="fill:white;fill-rule:nonzero;"/>
    <g transform="matrix(1,0,0,1,218,0)">
        <path d="M29.4,31.73L25.94,31.73L25.12,28.1C22.22,31.39 19.59,32.47 15.82,32.47C6.57,32.47 1.03,25.12 1.03,16.3C1.03,7.48 6.57,0.12 15.82,0.12C22.57,0.12 28.23,3.71 29.05,10.67L23.78,10.67C23.26,6.61 19.72,4.53 15.78,4.53C9.16,4.53 6.4,10.37 6.4,16.29C6.4,22.21 9.17,28.05 15.78,28.05C21.31,28.13 24.34,24.81 24.43,19.57L16.22,19.57L16.22,15.47L29.4,15.47L29.4,31.73ZM44.83,28.44C40.42,28.44 38.47,24.44 38.47,20.53C38.47,16.62 40.42,12.66 44.83,12.66C49.24,12.66 51.19,16.66 51.19,20.53C51.19,24.4 49.24,28.44 44.83,28.44ZM44.83,32.33C52.01,32.33 56.12,27.4 56.12,20.53C56.12,13.66 52,8.77 44.83,8.77C37.66,8.77 33.54,13.7 33.54,20.53C33.54,27.36 37.65,32.34 44.83,32.34L44.83,32.33ZM58,9.38L63.36,9.38L69,26.54L69.09,26.54L74.54,9.37L79.64,9.37L71.64,31.72L66.11,31.72L58,9.38ZM86.51,18.58C86.51,18.553 86.509,18.527 86.509,18.5C86.509,15.296 89.146,12.66 92.349,12.66C92.363,12.66 92.376,12.66 92.39,12.66C95.72,12.66 97.84,15.47 98.01,18.58L86.51,18.58ZM102.94,21.83C103.76,15.13 99.44,8.77 92.39,8.77C85.73,8.77 81.58,14.22 81.58,20.57C81.58,27.44 85.52,32.33 92.52,32.33C97.41,32.33 101.52,29.61 102.64,24.72L98,24.72C97.13,27.19 95.41,28.44 92.55,28.44C88.44,28.44 86.55,25.33 86.55,21.82L102.94,21.83ZM106.7,9.38L111.33,9.38L111.33,13.7L111.42,13.7C112.361,10.867 114.968,8.899 117.95,8.77C118.572,8.764 119.194,8.807 119.81,8.9L119.81,13.66C119.108,13.544 118.4,13.47 117.69,13.44C114.32,13.44 111.64,16.16 111.64,21.09L111.64,31.73L106.7,31.73L106.7,9.38ZM121.92,9.38L126.59,9.38L126.59,12.67L126.68,12.76C128.12,10.266 130.8,8.734 133.68,8.76C138.52,8.76 141.59,11.35 141.59,16.37L141.59,31.73L136.66,31.73L136.66,17.68C136.57,14.18 135.19,12.68 132.29,12.68C129,12.68 126.88,15.27 126.88,18.56L126.88,31.73L121.95,31.73L121.95,9.38L121.92,9.38ZM146.73,9.38L151.41,9.38L151.41,12.49L151.54,12.49C152.945,10.06 155.607,8.618 158.41,8.77C161.13,8.77 163.69,9.94 164.68,12.49C166.2,10.113 168.86,8.7 171.68,8.77C176.39,8.77 179.16,10.85 179.16,16.29L179.16,31.73L174.23,31.73L174.23,18.67C174.23,15.12 174.01,12.67 170.17,12.67C166.84,12.67 165.41,14.88 165.41,18.67L165.41,31.77L160.48,31.77L160.48,17.38C160.48,14.31 159.48,12.67 156.55,12.67C154,12.67 151.66,14.75 151.66,18.46L151.66,31.73L146.73,31.73L146.73,9.38ZM188.21,18.58C188.21,18.553 188.209,18.527 188.209,18.5C188.209,15.296 190.846,12.66 194.049,12.66C194.063,12.66 194.076,12.66 194.09,12.66C197.42,12.66 199.54,15.47 199.71,18.58L188.21,18.58ZM204.64,21.83C205.46,15.13 201.14,8.77 194.09,8.77C187.43,8.77 183.28,14.22 183.28,20.57C183.28,27.44 187.21,32.33 194.22,32.33C199.11,32.33 203.22,29.61 204.34,24.72L199.67,24.72C198.81,27.19 197.08,28.44 194.22,28.44C190.11,28.44 188.22,25.33 188.22,21.82L204.64,21.83ZM208.4,9.38L213.07,9.38L213.07,12.67L213.16,12.76C214.6,10.266 217.28,8.734 220.16,8.76C225,8.76 228.07,11.35 228.07,16.37L228.07,31.73L223.1,31.73L223.1,17.68C223.01,14.18 221.63,12.68 218.73,12.68C215.44,12.68 213.32,15.27 213.32,18.56L213.32,31.73L208.4,31.73L208.4,9.38ZM231,9.38L234.71,9.38L234.71,2.67L239.64,2.67L239.64,9.37L244.09,9.37L244.09,13.05L239.64,13.05L239.64,25C239.64,27 239.81,28.07 242.02,28.07C242.718,28.098 243.417,28.038 244.1,27.89L244.1,31.7C243.02,31.78 241.98,31.96 240.9,31.96C235.75,31.96 234.8,29.96 234.71,26.25L234.71,13.05L231,13.05L231,9.38ZM12,71.68C7.59,71.68 5.64,67.68 5.64,63.77C5.64,59.86 7.6,55.9 12,55.9C16.4,55.9 18.36,59.9 18.36,63.77C18.36,67.64 16.43,71.68 12,71.68ZM12,75.57C19.18,75.57 23.28,70.64 23.28,63.77C23.28,56.9 19.19,52 12,52C4.81,52 0.71,56.93 0.71,63.76C0.71,70.59 4.83,75.57 12,75.57ZM25.2,52.61L28.87,52.61L28.87,50.76C28.87,45.05 31.87,44.1 35.05,44.1C36.211,44.055 37.374,44.156 38.51,44.4L38.51,48.25C37.762,48.058 36.992,47.97 36.22,47.99C34.88,47.99 33.8,48.47 33.8,50.32L33.8,52.61L38,52.61L38,56.29L33.8,56.29L33.8,75L28.87,75L28.87,56.29L25.2,56.29L25.2,52.61ZM74.58,53.91C73.67,50.36 71.38,47.77 66.88,47.77C60.26,47.77 57.5,53.61 57.5,59.53C57.5,65.45 60.27,71.29 66.88,71.29C71.68,71.29 74.32,67.7 74.75,63.2L80,63.2C79.57,70.59 74.34,75.7 66.86,75.7C57.61,75.7 52.07,68.35 52.07,59.53C52.07,50.71 57.61,43.36 66.86,43.36C73.86,43.36 79.31,47.25 79.96,53.91L74.56,53.91L74.58,53.91ZM98.06,67.45C98.06,70.56 94.69,71.69 92.52,71.69C90.79,71.69 87.98,71.04 87.98,68.84C87.98,66.25 89.88,65.47 91.98,65.12C94.08,64.77 96.52,64.77 98.03,63.78L98.06,67.45ZM102.99,58.45C102.99,53.74 98.41,51.97 93.99,51.97C89.06,51.97 84.17,53.66 83.83,59.41L88.76,59.41C89,57 91,55.9 93.73,55.9C95.73,55.9 98.36,56.38 98.36,58.9C98.36,61.8 95.2,61.41 91.66,62.06C87.51,62.53 83.06,63.44 83.06,69.06C83.06,73.43 86.69,75.59 90.71,75.59C93.536,75.669 96.294,74.699 98.45,72.87C98.84,74.87 100.27,75.59 102.25,75.59C103.306,75.537 104.352,75.349 105.36,75.03L105.36,71.6C104.96,71.661 104.555,71.688 104.15,71.68C103.24,71.68 102.98,71.21 102.98,69.99L102.99,58.45ZM108.3,52.61L113,52.61L113,55.9L113.09,55.99C114.53,53.496 117.21,51.964 120.09,51.99C124.93,51.99 128,54.58 128,59.6L128,75L123,75L123,60.92C122.91,57.42 121.53,55.92 118.63,55.92C115.34,55.92 113.22,58.51 113.22,61.8L113.22,75L108.3,75L108.3,52.61ZM146.91,67.45C146.91,70.56 143.54,71.69 141.38,71.69C139.65,71.69 136.84,71.04 136.84,68.84C136.84,66.25 138.74,65.47 140.84,65.12C142.94,64.77 145.38,64.77 146.89,63.78L146.91,67.45ZM151.84,58.45C151.84,53.74 147.26,51.97 142.84,51.97C137.91,51.97 133.03,53.66 132.68,59.41L137.61,59.41C137.83,56.99 139.77,55.87 142.54,55.87C144.54,55.87 147.17,56.35 147.17,58.87C147.17,61.77 144.01,61.38 140.47,62.03C136.32,62.5 131.87,63.41 131.87,69.03C131.87,73.4 135.5,75.56 139.52,75.56C142.346,75.639 145.104,74.669 147.26,72.84C147.65,74.84 149.08,75.56 151.06,75.56C152.116,75.507 153.162,75.319 154.17,75L154.17,71.6C153.77,71.661 153.365,71.687 152.96,71.68C152.05,71.68 151.79,71.21 151.79,69.99L151.84,58.45ZM161,64C161,60 162.64,55.87 167.27,55.87C171.07,55.87 173.45,58.81 173.45,63.74C173.45,67.63 171.59,71.65 167.18,71.65C162.77,71.65 161,67.88 161,64ZM178.22,44.1L173.29,44.1L173.29,55.51L173.2,55.51C171.69,53.05 168.57,52.01 165.76,52.01C160.87,52.01 156.08,55.55 156.08,63.64C156.08,70.34 159.49,75.57 166.54,75.57C169.35,75.57 172.16,74.49 173.46,71.94L173.55,71.94L173.55,74.94L178.22,74.94L178.22,44.1ZM197.37,67.45C197.37,70.56 194,71.69 191.83,71.69C190.1,71.69 187.29,71.04 187.29,68.84C187.29,66.25 189.19,65.47 191.29,65.12C193.39,64.77 195.83,64.77 197.34,63.78L197.37,67.45ZM202.3,58.45C202.3,53.74 197.72,51.97 193.3,51.97C188.37,51.97 183.48,53.66 183.14,59.41L188.07,59.41C188.29,56.99 190.23,55.87 193,55.87C195,55.87 197.63,56.35 197.63,58.87C197.63,61.77 194.47,61.38 190.93,62.03C186.78,62.5 182.33,63.41 182.33,69.03C182.33,73.4 185.96,75.56 189.98,75.56C192.806,75.64 195.565,74.67 197.72,72.84C198.11,74.84 199.54,75.56 201.52,75.56C202.576,75.507 203.622,75.319 204.63,75L204.63,71.6C204.23,71.661 203.825,71.688 203.42,71.68C202.51,71.68 202.25,71.21 202.25,69.99L202.3,58.45Z" style="fill:white;fill-rule:nonzero;"/>
    </g>
    <g transform="matrix(1,0,0,1,526,0)">
        <path d="M29.47,32L26,32L25.18,28.37C22.28,31.66 19.65,32.74 15.88,32.74C6.63,32.74 1.09,25.39 1.09,16.57C1.09,7.75 6.64,0.4 15.89,0.4C22.64,0.4 28.3,4 29.12,11L23.85,11C23.33,6.94 19.79,4.86 15.85,4.86C9.23,4.86 6.47,10.7 6.47,16.62C6.47,22.54 9.24,28.38 15.85,28.38C21.38,28.47 24.41,25.14 24.5,19.91L16.29,19.91L16.29,15.75L29.43,15.75L29.43,32L29.47,32ZM44.9,28.72C40.49,28.72 38.54,24.72 38.54,20.81C38.54,16.9 40.49,12.94 44.9,12.94C49.31,12.94 51.26,16.94 51.26,20.81C51.26,24.68 49.31,28.72 44.9,28.72ZM44.9,32.61C52.08,32.61 56.19,27.68 56.19,20.81C56.19,13.94 52.08,9 44.9,9C37.72,9 33.62,14 33.62,20.81C33.62,27.62 37.73,32.61 44.9,32.61ZM79.93,32L75.09,32L75.09,28.9L75,28.9C73.677,31.164 71.261,32.577 68.64,32.62C62.8,32.62 60.3,29.68 60.3,23.84L60.3,9.65L65.23,9.65L65.23,23.36C65.23,27.3 66.83,28.72 69.51,28.72C73.62,28.72 75,26.09 75,22.62L75,9.62L79.93,9.62L79.93,32ZM82.91,9.65L88.27,9.65L93.93,26.82L94,26.82L99.45,9.65L104.55,9.65L96.55,32L91,32L82.91,9.65ZM111.4,18.86C111.4,18.833 111.399,18.807 111.399,18.78C111.399,15.576 114.036,12.94 117.239,12.94C117.253,12.94 117.266,12.94 117.28,12.94C120.61,12.94 122.73,15.75 122.9,18.86L111.4,18.86ZM127.83,22.1C128.66,15.4 124.33,9 117.28,9C110.62,9 106.47,14.45 106.47,20.8C106.47,27.67 110.4,32.56 117.41,32.56C122.29,32.56 126.41,29.84 127.53,24.95L122.86,24.95C122,27.42 120.27,28.67 117.41,28.67C113.3,28.67 111.41,25.56 111.41,22.05L127.83,22.1ZM131.6,9.65L136.23,9.65L136.23,14L136.31,14C137.23,11.142 139.841,9.143 142.84,9C143.462,8.994 144.084,9.037 144.7,9.13L144.7,13.89C143.998,13.774 143.29,13.7 142.58,13.67C139.21,13.67 136.53,16.39 136.53,21.32L136.53,32L131.6,32L131.6,9.65ZM146.81,9.65L151.48,9.65L151.48,12.94L151.57,13.03C153.01,10.536 155.69,9.004 158.57,9.03C163.42,9.03 166.48,11.62 166.48,16.64L166.48,32L161.55,32L161.55,18C161.47,14.5 160.08,13 157.18,13C153.89,13 151.78,15.59 151.78,18.88L151.78,32L146.85,32L146.81,9.65ZM175.48,18.86C175.48,18.833 175.479,18.807 175.479,18.78C175.479,15.576 178.116,12.94 181.319,12.94C181.333,12.94 181.346,12.94 181.36,12.94C184.69,12.94 186.81,15.75 186.98,18.86L175.48,18.86ZM191.91,22.1C192.73,15.4 188.41,9 181.36,9C174.7,9 170.55,14.45 170.55,20.8C170.55,27.67 174.49,32.56 181.49,32.56C186.38,32.56 190.49,29.84 191.61,24.95L186.94,24.95C186.07,27.42 184.34,28.67 181.49,28.67C177.38,28.67 175.49,25.56 175.49,22.05L191.91,22.1ZM195.67,9.65L200.34,9.65L200.34,12.76L200.47,12.76C201.865,10.314 204.528,8.856 207.34,9C210.07,9 212.62,10.17 213.61,12.72C215.13,10.343 217.79,8.93 220.61,9C225.32,9 228.09,11.08 228.09,16.52L228.09,32L223.16,32L223.16,19C223.16,15.45 222.94,13 219.1,13C215.77,13 214.34,15.21 214.34,19L214.34,32L209.41,32L209.41,17.65C209.41,14.58 208.41,12.94 205.48,12.94C202.93,12.94 200.6,15.02 200.6,18.73L200.6,32L195.67,32L195.67,9.65ZM237.14,18.86C237.14,18.833 237.139,18.807 237.139,18.78C237.139,15.576 239.776,12.94 242.979,12.94C242.986,12.94 242.993,12.94 243,12.94C246.33,12.94 248.45,15.75 248.62,18.86L237.14,18.86ZM253.57,22.1C254.39,15.4 250.06,9 243,9C236.34,9 232.19,14.45 232.19,20.8C232.19,27.67 236.12,32.56 243.13,32.56C248.01,32.56 252.13,29.84 253.25,24.95L248.58,24.95C247.72,27.42 245.99,28.67 243.13,28.67C239.02,28.67 237.13,25.56 237.13,22.05L253.57,22.1ZM257.33,9.65L262,9.65L262,12.94L262.09,13.03C263.53,10.536 266.21,9.004 269.09,9.03C273.94,9.03 277,11.62 277,16.64L277,32L272,32L272,18C271.92,14.5 270.53,13 267.63,13C264.34,13 262.22,15.59 262.22,18.88L262.22,32L257.29,32L257.33,9.65ZM279.9,9.65L283.62,9.65L283.62,3L288.55,3L288.55,9.7L293,9.7L293,13.38L288.55,13.38L288.55,25.27C288.55,27.27 288.72,28.34 290.93,28.34C291.628,28.37 292.326,28.313 293.01,28.17L293.01,32C291.93,32.08 290.89,32.26 289.81,32.26C284.67,32.26 283.72,30.26 283.63,26.55L283.63,13.33L279.91,13.33L279.91,9.65L279.9,9.65ZM5.69,64.31C5.69,60.31 7.33,56.18 11.96,56.18C15.76,56.18 18.14,59.12 18.14,64.05C18.14,67.94 16.28,71.96 11.87,71.96C7.46,71.96 5.69,68.15 5.69,64.31ZM22.92,44.37L18,44.37L18,55.79L17.91,55.79C16.4,53.33 13.28,52.29 10.48,52.29C5.59,52.29 0.79,55.83 0.79,63.92C0.79,70.62 4.21,75.85 11.25,75.85C14.06,75.85 16.87,74.77 18.17,72.22L18.25,72.22L18.25,75.22L22.92,75.22L22.92,44.37ZM47.93,75.25L43,75.25L43,72.13C41.677,74.394 39.261,75.807 36.64,75.85C30.8,75.85 28.3,72.91 28.3,67.07L28.3,52.89L33.23,52.89L33.23,66.59C33.23,70.53 34.83,71.95 37.51,71.95C41.62,71.95 43,69.32 43,65.85L43,52.85L47.93,52.85L47.93,75.25ZM86.63,54.19C85.72,50.64 83.43,48.05 78.93,48.05C72.31,48.05 69.55,53.89 69.55,59.81C69.55,65.73 72.32,71.57 78.93,71.57C83.73,71.57 86.36,67.99 86.8,63.49L92.08,63.49C91.65,70.88 86.42,75.99 78.94,75.99C69.69,75.99 64.15,68.64 64.15,59.82C64.15,51 69.68,43.65 78.94,43.65C85.94,43.65 91.39,47.54 92.04,54.2L86.63,54.2L86.63,54.19ZM110.11,67.72C110.11,70.83 106.74,71.96 104.58,71.96C102.85,71.96 100.04,71.31 100.04,69.11C100.04,66.52 101.94,65.74 104.04,65.39C106.14,65.04 108.58,65.04 110.09,64.05L110.09,67.73L110.11,67.72ZM115.04,58.72C115.04,54.01 110.46,52.23 106.04,52.23C101.11,52.23 96.23,53.92 95.88,59.67L100.81,59.67C101.03,57.25 102.98,56.12 105.74,56.12C107.74,56.12 110.37,56.6 110.37,59.12C110.37,62.02 107.21,61.63 103.67,62.28C99.52,62.75 95.07,63.66 95.07,69.28C95.07,73.65 98.7,75.81 102.72,75.81C105.546,75.89 108.305,74.92 110.46,73.09C110.85,75.09 112.28,75.81 114.27,75.81C115.326,75.757 116.372,75.569 117.38,75.25L117.38,71.88C116.98,71.941 116.575,71.967 116.17,71.96C115.26,71.96 115,71.49 115,70.27L115,58.77L115.04,58.72ZM120.35,52.89L125,52.89L125,56.18L125.09,56.27C126.53,53.776 129.21,52.244 132.09,52.27C136.94,52.27 140,54.86 140,59.88L140,75.25L135.07,75.25L135.07,61.19C134.99,57.69 133.6,56.19 130.7,56.19C127.41,56.19 125.3,58.78 125.3,62.07L125.3,75.25L120.37,75.25L120.35,52.89ZM159,67.72C159,70.83 155.63,71.96 153.46,71.96C151.73,71.96 148.92,71.31 148.92,69.11C148.92,66.52 150.82,65.74 152.92,65.39C155.02,65.04 157.45,65 159,64L159,67.72ZM163.93,58.72C163.93,54.01 159.35,52.23 154.98,52.23C150.05,52.23 145.16,53.92 144.82,59.67L149.75,59.67C149.97,57.25 151.91,56.12 154.68,56.12C156.68,56.12 159.3,56.6 159.3,59.12C159.3,62.02 156.14,61.63 152.6,62.28C148.45,62.75 143.99,63.66 143.99,69.28C143.99,73.65 147.63,75.81 151.64,75.81C154.466,75.89 157.225,74.92 159.38,73.09C159.77,75.09 161.2,75.81 163.19,75.81C164.246,75.757 165.292,75.569 166.3,75.25L166.3,71.88C165.9,71.941 165.495,71.968 165.09,71.96C164.18,71.96 163.92,71.49 163.92,70.27L163.92,58.77L163.93,58.72ZM173.06,64.31C173.06,60.31 174.7,56.18 179.33,56.18C183.13,56.18 185.51,59.12 185.51,64.05C185.51,67.94 183.65,71.96 179.24,71.96C174.83,71.96 173.06,68.15 173.06,64.31ZM190.27,44.38L185.34,44.38L185.34,55.79L185.25,55.79C183.74,53.33 180.63,52.29 177.82,52.29C172.93,52.29 168.14,55.83 168.14,63.92C168.14,70.62 171.56,75.85 178.6,75.85C181.41,75.85 184.22,74.77 185.52,72.22L185.61,72.22L185.61,75.22L190.28,75.22L190.28,44.37L190.27,44.38ZM209.42,67.72C209.42,70.83 206.05,71.96 203.89,71.96C202.16,71.96 199.35,71.31 199.35,69.11C199.35,66.52 201.25,65.74 203.35,65.39C205.45,65.04 207.89,65.04 209.4,64.05L209.4,67.73L209.42,67.72ZM214.35,58.72C214.35,54.01 209.77,52.23 205.4,52.23C200.47,52.23 195.58,53.92 195.24,59.67L200.17,59.67C200.39,57.25 202.33,56.12 205.1,56.12C207.1,56.12 209.72,56.6 209.72,59.12C209.72,62.02 206.56,61.63 203.02,62.28C198.87,62.75 194.41,63.66 194.41,69.28C194.41,73.65 198.05,75.81 202.06,75.81C204.886,75.889 207.644,74.919 209.8,73.09C210.19,75.09 211.62,75.81 213.6,75.81C214.656,75.757 215.702,75.569 216.71,75.25L216.71,71.88C216.31,71.941 215.905,71.968 215.5,71.96C214.59,71.96 214.33,71.49 214.33,70.27L214.33,58.77L214.35,58.72Z" style="fill:white;fill-rule:nonzero;"/>
    </g>
</svg>
